<svg width="591" height="214" viewBox="0 0 591 214" fill="none" xmlns="http://www.w3.org/2000/svg">
<path d="M266.4 136.438C263.08 133.758 257 132.408 248.16 132.408C240.64 132.408 234.96 132.788 231.1 133.558C228.89 134.008 227.39 134.548 226.6 135.188C225.81 135.828 225.42 136.848 225.42 138.258C225.42 138.708 225.55 139.758 225.8 141.418L225.99 142.468C226.43 144.958 227.08 146.578 227.93 147.308C228.78 148.048 230.41 148.218 232.81 147.838C236.03 147.258 239.25 146.978 242.48 146.978C246.59 146.978 249.29 147.428 250.58 148.318C251.87 149.218 252.52 150.558 252.52 152.348V153.398C248.29 152.188 244.5 151.578 241.15 151.578C235.34 151.578 230.82 152.868 227.6 155.458C224.38 158.048 222.77 161.768 222.77 166.628V169.118C222.77 173.078 224 176.308 226.47 178.798C228.93 181.288 231.92 182.968 235.42 183.828C238.93 184.688 242.98 185.118 247.6 185.118C254.11 185.118 259.89 184.448 264.94 183.108C267.72 182.408 269.5 181.528 270.29 180.468C271.08 179.418 271.47 177.548 271.47 174.858V151.658C271.41 144.178 269.72 139.098 266.4 136.418V136.438ZM252.52 172.008C251.26 172.268 250.06 172.388 248.92 172.388C244.75 172.388 242.67 170.948 242.67 168.078V167.698C242.67 165.458 244.28 164.338 247.5 164.338C249.58 164.338 251.26 164.818 252.52 165.778V172.008Z" fill="#005633"/>
<path d="M301.68 168.308H301.53C299.12 168.308 297.57 167.438 296.69 166.278C294.94 163.948 294.88 160.188 294.88 155.268V139.118C294.88 136.758 294.36 135.048 293.32 133.988C292.28 132.938 290.59 132.408 288.25 132.408H281.62C279.28 132.408 277.59 132.938 276.55 133.988C275.51 135.038 274.99 136.758 274.99 139.118V160.308C274.99 168.548 276.68 174.948 280.84 178.778C285.01 182.608 291.69 184.178 300.1 184.178H301.68C304.02 184.178 305.71 183.648 306.75 182.598C307.79 181.548 308.31 180.638 308.31 178.278V175.018C308.31 172.658 307.79 170.948 306.75 169.888C305.71 168.838 304.02 168.308 301.68 168.308Z" fill="#005633"/>
<path d="M367.56 132.408C362 132.408 356.32 133.308 350.5 135.088C346.96 133.298 342.6 132.408 337.42 132.408C330.6 132.408 324 133.588 317.62 135.958C313.32 137.558 311.18 140.748 311.18 145.548V177.468C311.18 179.838 311.7 181.538 312.74 182.598C313.78 183.648 315.47 184.178 317.81 184.178H323.5C325.84 184.178 327.53 183.648 328.57 182.598C329.61 181.548 330.13 179.838 330.13 177.468V149.188C331.96 148.418 333.76 148.038 335.53 148.038C339.19 148.038 341.12 150.208 341.31 154.558V177.468C341.31 179.838 341.83 181.538 342.87 182.598C343.91 183.648 345.6 184.178 347.94 184.178H353.72C356.06 184.178 357.75 183.648 358.79 182.598C359.83 181.548 360.35 179.838 360.35 177.468V149.188C362.06 148.418 363.82 148.038 365.66 148.038C369.58 148.038 371.53 150.438 371.53 155.228V177.468C371.53 179.838 372.05 181.538 373.09 182.598C374.13 183.648 375.82 184.178 378.16 184.178H383.85C386.19 184.178 387.88 183.648 388.92 182.598C389.96 181.548 390.48 179.838 390.48 177.468V153.218C390.48 146.638 388.6 141.518 384.84 137.878C381.08 134.238 375.32 132.418 367.55 132.418L367.56 132.408Z" fill="#005633"/>
<path d="M439.81 138.208C435.42 134.338 428.83 132.408 420.05 132.408C402.87 132.408 394.28 140.938 394.28 158.008V159.538C394.28 168.548 396.96 175.068 402.33 179.098C407.7 183.128 415.56 185.138 425.92 185.138C432.05 185.138 437.16 184.758 441.27 183.988C445.25 183.218 446.86 180.598 446.1 176.128L445.82 174.498C445.5 172.768 444.87 171.508 443.92 170.708C442.97 169.908 441.49 169.638 439.47 169.898C435.3 170.278 431.7 170.478 428.67 170.478C424.75 170.478 421.78 170.178 419.76 169.568C417.74 168.958 416.29 167.888 415.4 166.358H439.75C444.17 166.358 446.38 163.958 446.38 159.168V157.918C446.38 148.648 444.18 142.088 439.79 138.218L439.81 138.208ZM414.37 154.078C415 149.418 417.37 147.078 421.48 147.078C426.03 147.078 428.33 149.408 428.4 154.078H414.38H414.37Z" fill="#005633"/>
<path d="M495.47 138.208C491.08 134.338 484.49 132.408 475.71 132.408C458.53 132.408 449.94 140.938 449.94 158.008V159.538C449.94 168.548 452.62 175.068 457.99 179.098C463.36 183.128 471.22 185.138 481.58 185.138C487.71 185.138 492.82 184.758 496.93 183.988C500.91 183.218 502.52 180.598 501.76 176.128L501.48 174.498C501.16 172.768 500.53 171.508 499.58 170.708C498.63 169.908 497.15 169.638 495.13 169.898C490.96 170.278 487.36 170.478 484.33 170.478C480.41 170.478 477.44 170.178 475.42 169.568C473.4 168.958 471.95 167.888 471.06 166.358H495.41C499.83 166.358 502.04 163.958 502.04 159.168V157.918C502.04 148.648 499.84 142.088 495.45 138.218L495.47 138.208ZM470.03 154.078C470.66 149.418 473.03 147.078 477.14 147.078C481.69 147.078 483.99 149.408 484.06 154.078H470.04H470.03Z" fill="#005633"/>
<path d="M540.66 134.038C540.09 133.458 539.08 133.078 537.63 132.888C534.79 132.568 532.42 132.408 530.52 132.408C522.75 132.408 516.94 132.948 513.09 134.038C510.82 134.678 509.17 135.568 508.16 136.718C507.15 137.868 506.64 139.528 506.64 141.708V177.468C506.64 179.838 507.16 181.538 508.2 182.598C509.24 183.648 510.93 184.178 513.27 184.178H518.96C521.3 184.178 522.99 183.648 524.03 182.598C525.07 181.548 525.59 179.838 525.59 177.468V148.518C528.24 147.938 530.71 147.658 532.98 147.658H536.2C537.91 147.658 539 147.318 539.47 146.648C539.94 145.978 540.43 144.238 540.94 141.428L541.13 140.378C541.38 139.098 541.51 137.888 541.51 136.738C541.51 135.528 541.23 134.628 540.66 134.058V134.038Z" fill="#005633"/>
<path d="M585.41 136.438C582.09 133.758 576.01 132.408 567.17 132.408C559.65 132.408 553.97 132.788 550.11 133.558C547.9 134.008 546.4 134.548 545.61 135.188C544.82 135.828 544.43 136.848 544.43 138.258C544.43 138.708 544.56 139.758 544.81 141.418L545 142.468C545.44 144.958 546.09 146.578 546.94 147.308C547.79 148.048 549.42 148.218 551.82 147.838C555.04 147.258 558.26 146.978 561.49 146.978C565.6 146.978 568.3 147.428 569.59 148.318C570.88 149.218 571.53 150.558 571.53 152.348V153.398C567.3 152.188 563.51 151.578 560.16 151.578C554.35 151.578 549.83 152.868 546.61 155.458C543.39 158.048 541.78 161.768 541.78 166.628V169.118C541.78 173.078 543.01 176.308 545.48 178.798C547.94 181.288 550.93 182.968 554.43 183.828C557.94 184.688 561.99 185.118 566.61 185.118C573.12 185.118 578.9 184.448 583.95 183.108C586.73 182.408 588.51 181.528 589.3 180.468C590.09 179.418 590.48 177.548 590.48 174.858V151.658C590.42 144.178 588.73 139.098 585.41 136.418V136.438ZM571.52 172.008C570.26 172.268 569.06 172.388 567.92 172.388C563.75 172.388 561.67 170.948 561.67 168.078V167.698C561.67 165.458 563.28 164.338 566.5 164.338C568.58 164.338 570.26 164.818 571.52 165.778V172.008Z" fill="#005633"/>
<path d="M226.78 99.7978C229.24 103.538 232.68 106.368 237 108.228C241.33 110.088 246.3 111.028 251.77 111.028C258.02 111.028 263.24 110.088 267.27 108.238C271.31 106.378 274.53 103.978 276.85 101.088C279.18 98.1878 280.86 95.0078 281.83 91.6378C282.81 88.2478 283.3 85.0378 283.3 82.0778C283.3 75.9778 281.86 70.1178 279.03 64.6678C276.19 59.2078 272.04 53.7878 266.69 48.5578C263.4 45.3378 259.65 42.0078 255.57 38.6678C253.77 37.1878 251.48 36.3778 249.14 36.3778C246.13 36.3778 243.32 37.6778 241.41 39.9578L236.17 46.2278C235.65 46.8478 235.42 47.6178 235.51 48.4078C235.6 49.1978 236.01 49.9078 236.65 50.3978C237.52 51.0578 238.06 52.0478 238.15 53.1178C238.24 54.1778 237.86 55.2278 237.12 56.0078C233.7 59.5978 230.94 63.2278 228.93 66.7978C225.02 73.7378 223.04 80.0978 223.04 85.7178C223.04 91.3378 224.29 96.0678 226.76 99.8078L226.78 99.7978ZM244 74.7078C244.66 73.0878 247.1 69.8578 248.5 68.0678C249.68 66.5678 251.46 65.7078 253.39 65.7078C255.11 65.7078 256.71 66.3878 257.89 67.6078C258.15 67.8778 258.4 68.1378 258.63 68.3978C260.93 70.9478 262.51 73.2878 263.32 75.3678C264.13 77.4478 264.54 79.3978 264.54 81.1878C264.54 82.9778 264.12 84.7178 263.31 86.3278C262.48 87.9478 261.25 89.2678 259.66 90.2778C258.06 91.2878 255.95 91.8078 253.4 91.8078C250.44 91.8078 247.85 90.9678 245.7 89.3178C243.52 87.6378 242.41 85.1578 242.41 81.9278C242.41 79.7478 242.95 77.3278 244 74.7178V74.7078Z" fill="#005633"/>
<path d="M376.35 107.188C374.48 107.188 372.93 107.848 371.61 109.198C370.29 110.558 369.64 112.128 369.64 113.998C369.64 115.768 370.3 117.338 371.6 118.638C372.92 119.958 374.47 120.598 376.34 120.598C378.21 120.598 379.64 119.958 380.93 118.638C382.2 117.338 382.85 115.768 382.85 113.998C382.85 112.228 382.2 110.528 380.93 109.198C379.64 107.848 378.14 107.188 376.35 107.188Z" fill="#005633"/>
<path d="M358.72 107.188C356.85 107.188 355.3 107.848 353.98 109.198C352.67 110.538 352.01 112.148 352.01 113.998C352.01 115.848 352.67 117.328 353.97 118.638C355.29 119.958 356.84 120.598 358.71 120.598C360.58 120.598 362.01 119.958 363.3 118.638C364.57 117.338 365.22 115.768 365.22 113.998C365.22 112.228 364.57 110.528 363.3 109.198C362.01 107.848 360.51 107.188 358.72 107.188Z" fill="#005633"/>
<path d="M484.7 98.2478C485.06 97.7778 485.41 97.3078 485.76 96.7978C485.83 96.6878 485.95 96.6278 486.08 96.6178C486.08 96.6178 486.1 96.6178 486.11 96.6178C486.23 96.6178 486.35 96.6678 486.43 96.7578C488.46 98.9578 491.05 100.688 494.11 101.898C498.04 103.458 505.59 105.018 510.27 105.248C511.54 105.308 514.63 105.338 515.91 105.338C524.06 105.338 530.44 104.098 535.09 103.198C535.59 103.098 536.08 103.008 536.53 102.918C547.93 100.758 554.39 96.7778 556.46 94.0278C558.81 90.8978 560.32 87.0778 560.94 82.6578C561.57 78.1978 561.79 73.1078 561.6 67.5278L558.96 32.4578C558.8 29.6578 556.46 27.4678 553.62 27.4678H541.57C540.09 27.4678 538.71 28.0478 537.69 29.1078C536.67 30.1678 536.15 31.5578 536.23 33.0178L538.57 66.0278C538.79 71.5778 536.79 78.4178 531.82 81.2378C528.77 82.9678 524.56 83.8078 518.94 83.8078C516.05 83.8078 511.4 83.5778 509.24 83.3778C503.29 82.8278 500.34 80.2778 497.61 77.4878C495.44 75.2778 493.75 72.6178 491.21 68.1578C490.44 66.8078 489.71 65.5078 489.01 64.2378C486.61 59.9278 484.53 56.2178 482.28 53.4278C479.39 49.8578 476.35 47.3078 473.23 45.8378C470.11 44.3678 466.73 43.6278 463.18 43.6278C460.58 43.6278 457.93 44.0378 455.28 44.8478C452.63 45.6578 449.95 47.0078 447.3 48.8578C444.66 50.7078 441.98 53.2278 439.36 56.3478C436.74 59.4678 434.18 63.3878 431.75 67.9878C431.56 68.3478 431.37 68.6978 431.17 69.0578C429.07 72.9878 426.89 77.0578 422.33 79.9278C415.37 84.3078 410.19 84.4678 407.1 84.5578C406.52 84.5778 407.82 84.5878 407.4 84.6278C407.39 84.6278 407.37 84.6278 407.36 84.6278C403.73 84.6278 395.72 84.2678 393.17 83.7778C390.63 83.2878 388.55 82.5578 386.99 81.6178C385.41 80.6578 384.24 79.4478 383.52 78.0278C382.81 76.6178 382.44 74.9878 382.44 73.1878C382.44 71.3878 382.94 65.3178 383.2 63.2378C383.44 61.2578 383.74 59.2678 384.09 57.3278V57.2678C384.32 56.0478 384.03 54.8078 383.31 53.7978C382.58 52.7778 381.49 52.1078 380.25 51.8978L371.15 50.3878C370.89 50.3478 370.62 50.3178 370.36 50.3178C368.03 50.3178 366.06 51.9678 365.67 54.2478C365.51 55.1878 365.33 56.2878 365.13 57.4578C364.39 61.8978 363.48 67.4178 362.76 69.8178C360.29 77.9778 356.3 80.5278 353.1 81.8278C347.18 84.2378 343.7 85.4078 335.17 85.4078C334.73 85.4078 331.87 85.4078 331.47 85.4078C325.2 85.3278 321.27 83.3878 319.49 82.2378C317.01 80.6378 315.04 77.4278 313.65 72.6978C313.36 71.7378 312.76 69.8778 311.89 67.1778C311.38 65.6178 310.05 62.4678 308.76 59.4378C307.82 57.2278 306.94 55.1478 306.38 53.6978C305.87 52.3778 305.32 51.0678 304.75 49.8178C303.79 47.7178 301.64 46.3578 299.29 46.3578C298.38 46.3578 297.5 46.5578 296.67 46.9478L288.92 50.6278C285.96 52.0378 284.68 55.5678 286.07 58.5078C286.26 58.9078 286.48 59.3678 286.72 59.8878C288.4 63.4178 291.21 69.3378 292.24 71.9878C294.11 76.8678 295.06 81.4278 295.06 85.5178C295.06 89.6078 294.15 93.1578 292.36 96.5578C290.58 99.9378 288.02 103.088 284.75 105.918C283.8 106.748 282.78 107.558 281.74 108.348C280.52 109.258 279.74 110.578 279.53 112.068C279.33 113.538 279.72 114.998 280.63 116.168L285.56 122.528C286.62 123.898 288.3 124.718 290.04 124.718C291.25 124.718 292.4 124.338 293.36 123.618C294.91 122.458 296.43 121.228 297.87 119.968C302.23 116.138 305.84 111.888 308.61 107.338C310.32 104.528 311.62 101.578 312.5 98.5578C312.54 98.4078 312.66 98.2978 312.81 98.2578C312.84 98.2578 312.88 98.2478 312.91 98.2478C313.03 98.2478 313.14 98.2978 313.22 98.3778C314.87 100.088 316.93 101.418 319.52 102.428C322.1 103.438 333.25 105.038 338.7 105.038C338.79 105.038 338.88 105.038 338.97 105.038C345.56 104.968 347.8 104.098 351.25 103.578C354.68 103.068 358.13 102.098 361.53 100.718C364.8 99.3878 367.8 97.3378 370.44 94.6378C371.12 93.9378 371.8 93.1478 372.45 92.2778C372.53 92.1678 372.66 92.1078 372.8 92.1078C372.81 92.1078 372.82 92.1078 372.84 92.1078C372.99 92.1178 373.12 92.2078 373.19 92.3378C373.39 92.7278 373.58 93.0778 373.78 93.3978C375.35 95.9878 377.44 98.0978 379.97 99.6578C380.39 99.9178 380.81 100.188 381.25 100.458C383.52 101.898 385.86 103.378 388.75 104.158C393.12 105.328 401.85 105.948 407.28 105.948C411.12 105.948 413.18 105.658 416.94 105.068C424.55 103.888 430.26 101.878 433.93 99.0878C436.78 96.9178 438.24 94.4878 440 91.2978C440.07 91.1678 440.2 91.0878 440.34 91.0778C440.35 91.0778 440.36 91.0778 440.37 91.0778C440.5 91.0778 440.63 91.1378 440.71 91.2478C443.61 94.9678 446.82 97.9478 450.24 100.098C453.67 102.248 457.05 103.798 460.29 104.698C463.52 105.608 466.38 106.058 468.79 106.058C472.42 106.058 475.6 105.298 478.22 103.788C480.85 102.278 483.04 100.408 484.72 98.2278L484.7 98.2478ZM473.22 84.3078C471.86 85.9078 470.12 86.7178 468.03 86.7178C466.12 86.7178 464.17 86.3678 462.22 85.6778C460.28 84.9878 458.44 84.0678 456.75 82.9378C455.07 81.8178 453.51 80.4978 452.11 79.0178L452.09 78.9978L452.07 78.9778C449.58 76.3478 449.31 72.3078 451.41 69.3878C451.83 68.7978 452.26 68.2578 452.68 67.7678C454.08 66.1378 455.5 64.9078 456.92 64.1078C458.35 63.2978 459.76 62.8878 461.11 62.8878C462.46 62.8878 463.83 63.4078 465.13 64.4378C466.39 65.4378 467.55 66.6878 468.6 68.1578C469.63 69.6178 470.58 71.1678 471.43 72.7878C472.26 74.3878 472.94 75.8478 473.44 77.1178C474.67 80.2678 474.6 82.6878 473.22 84.3078Z" fill="#005633"/>
<path d="M567.99 100.238C568.11 103.268 570.88 105.648 574.29 105.648H584.16C586.04 105.648 587.81 104.908 589.02 103.618C590.01 102.558 590.52 101.228 590.47 99.8478L587.44 33.2378C587.32 30.2078 584.55 27.8278 581.14 27.8278H571.26C569.38 27.8278 567.61 28.5678 566.4 29.8578C565.41 30.9178 564.9 32.2478 564.95 33.6278L567.99 100.238Z" fill="#005633"/>
<path d="M240.07 18.3478C238.2 18.3478 236.65 19.0078 235.33 20.3578C234.02 21.6978 233.36 23.3078 233.36 25.1578C233.36 27.0078 234.02 28.4878 235.32 29.7978C236.64 31.1178 238.19 31.7578 240.06 31.7578C241.93 31.7578 243.36 31.1178 244.65 29.7978C245.92 28.4978 246.57 26.9278 246.57 25.1578C246.57 23.3878 245.92 21.6878 244.65 20.3578C243.36 19.0078 241.86 18.3478 240.07 18.3478Z" fill="#005633"/>
<path d="M257.7 18.3478C255.83 18.3478 254.28 19.0078 252.96 20.3578C251.64 21.7178 250.99 23.2878 250.99 25.1578C250.99 26.9278 251.65 28.4978 252.95 29.7978C254.27 31.1178 255.82 31.7578 257.69 31.7578C259.56 31.7578 260.99 31.1178 262.28 29.7978C263.55 28.4978 264.2 26.9278 264.2 25.1578C264.2 23.3878 263.55 21.6878 262.28 20.3578C260.99 19.0078 259.49 18.3478 257.7 18.3478Z" fill="#005633"/>
<path d="M198.09 107.888C198.09 166.958 166.47 221.798 90.62 212.708C31.97 205.678 0 173.238 0 114.168C0 55.0979 39.72 10.0079 98.79 0.937877C157.18 -8.03212 198.09 48.8279 198.09 107.888Z" fill="#B8E100"/>
<path d="M141.47 138.668C141.07 139.018 140.65 139.368 140.24 139.718C140.22 139.738 140.2 139.748 140.18 139.758C128.09 148.308 114.52 154.468 100.78 159.758C89.5201 163.888 77.3301 167.838 65.4001 169.468C63.3101 169.758 61.3101 168.538 60.5701 166.568C50.9701 140.688 52.0101 111.378 55.7701 83.9679C55.7701 83.9479 55.7701 83.9279 55.7701 83.9179C55.9301 83.1579 56.0801 82.3979 56.2401 81.6379C56.2601 81.5479 56.2001 81.4579 56.1101 81.4379C56.0301 81.4179 55.9301 81.4779 55.9101 81.5679C55.7501 82.3079 55.6001 83.0479 55.4501 83.7979C55.4501 83.8179 55.4501 83.8279 55.4401 83.8479C46.8301 114.358 41.6601 147.598 51.2601 178.678C52.0401 180.928 54.6701 184.048 58.9001 183.378C67.4001 181.858 74.9201 179.128 82.2901 176.088C102.72 167.188 122.53 156.078 139.06 141.098C139.97 140.368 140.85 139.638 141.67 138.918C141.74 138.858 141.75 138.758 141.69 138.688C141.63 138.618 141.52 138.608 141.46 138.678L141.47 138.668Z" fill="#005633"/>
<path d="M143.31 122.298C142.97 122.608 142.59 122.908 142.23 123.218C142.21 123.228 142.2 123.248 142.18 123.258C131.55 130.778 119.67 136.308 107.56 140.868C97.6901 144.588 86.9501 147.978 76.4601 149.428C74.6201 149.678 72.8601 148.618 72.2201 146.878C63.7601 124.138 64.6701 98.3678 67.9601 74.2778C67.9601 74.2578 67.9601 74.2478 67.9601 74.2278C68.1001 73.5578 68.2301 72.8878 68.3801 72.2278C68.4001 72.1478 68.3501 72.0778 68.2701 72.0578C68.2001 72.0478 68.1101 72.0878 68.1001 72.1678C67.9701 72.8178 67.8301 73.4679 67.6901 74.1279C67.6901 74.1379 67.6901 74.1578 67.6901 74.1678C60.1401 100.988 55.1401 130.368 64.0701 157.528C64.7301 159.518 67.0701 162.248 70.7901 161.658C78.2601 160.318 84.9001 157.978 91.3501 155.238C109.38 147.588 126.71 137.628 141.23 124.448C142.03 123.808 142.8 123.158 143.52 122.528C143.58 122.478 143.59 122.388 143.53 122.318C143.47 122.248 143.39 122.248 143.33 122.308L143.31 122.298Z" fill="#005633"/>
<path d="M145.03 105.938C144.73 106.208 144.41 106.468 144.1 106.738C144.09 106.748 144.07 106.758 144.06 106.768C134.9 113.258 124.66 118.038 114.21 121.978C105.7 125.188 96.4401 128.128 87.4001 129.378C85.8201 129.598 84.3001 128.678 83.7401 127.178C76.4301 107.568 77.1901 85.3479 80.0101 64.5679C80.0101 64.5579 80.0101 64.5379 80.0101 64.5279C80.1301 63.9479 80.2501 63.3779 80.3701 62.7979C80.3801 62.7279 80.3401 62.6679 80.2701 62.6479C80.2101 62.6379 80.1401 62.6779 80.1201 62.7479C80.0001 63.3079 79.8901 63.8679 79.7701 64.4379C79.7701 64.4479 79.7701 64.4579 79.7701 64.4679C73.2801 87.6079 68.9801 112.948 76.7101 136.368C77.2801 138.088 79.3001 140.438 82.5101 139.918C88.9501 138.758 94.6801 136.728 100.23 134.368C115.78 127.758 130.71 119.148 143.23 107.778C143.92 107.228 144.58 106.668 145.21 106.118C145.26 106.068 145.27 105.998 145.22 105.938C145.17 105.878 145.1 105.878 145.04 105.928L145.03 105.938Z" fill="#005633"/>
<path d="M146.75 89.5679C146.5 89.7979 146.23 90.0179 145.97 90.2379C145.96 90.2379 145.95 90.2579 145.93 90.2679C138.24 95.7379 129.63 99.7579 120.86 103.078C113.71 105.788 105.93 108.268 98.3301 109.328C97.0001 109.518 95.7201 108.748 95.2501 107.488C89.0901 91.0179 89.7101 72.3379 92.0501 54.8679C92.0501 54.8579 92.0501 54.8479 92.0501 54.8379C92.1501 54.3479 92.2501 53.8679 92.3501 53.3879C92.3601 53.3279 92.3301 53.2779 92.2701 53.2679C92.2201 53.2579 92.1601 53.2879 92.1501 53.3479C92.0501 53.8179 91.9601 54.2879 91.8601 54.7679C91.8601 54.7679 91.8601 54.7879 91.8601 54.7979C86.4301 74.2479 82.8401 95.5479 89.3601 115.228C89.8401 116.668 91.5401 118.648 94.2301 118.208C99.6401 117.228 104.45 115.518 109.12 113.528C122.18 107.958 134.73 100.708 145.23 91.1379C145.81 90.6679 146.36 90.1979 146.89 89.7479C146.93 89.7079 146.94 89.6479 146.89 89.5979C146.84 89.5479 146.78 89.5479 146.74 89.5979L146.75 89.5679Z" fill="#005633"/>
<path d="M148.48 73.2079C148.28 73.3879 148.06 73.5679 147.85 73.7479C147.85 73.7479 147.83 73.7679 147.82 73.7679C141.6 78.2079 134.63 81.4779 127.53 84.1779C121.74 86.3779 115.44 88.3979 109.29 89.2679C108.21 89.4179 107.18 88.7979 106.79 87.7779C101.77 74.4379 102.25 59.3079 104.13 45.1479C104.13 45.1479 104.13 45.1279 104.13 45.1179C104.21 44.7279 104.29 44.3279 104.37 43.9379C104.37 43.8879 104.35 43.8479 104.3 43.8379C104.26 43.8379 104.21 43.8579 104.2 43.9079C104.12 44.2879 104.04 44.6779 103.97 45.0579V45.0779C99.6001 60.8479 96.7201 78.1079 102.02 94.0379C102.41 95.2079 103.79 96.8079 105.97 96.4479C110.36 95.6479 114.25 94.2579 118.03 92.6379C128.6 88.1079 138.76 82.2179 147.26 74.4479C147.73 74.0679 148.18 73.6879 148.6 73.3179C148.64 73.2879 148.64 73.2279 148.6 73.1979C148.56 73.1679 148.51 73.1579 148.48 73.1979V73.2079Z" fill="#005633"/>
<path d="M150.15 56.8479C150 56.9879 149.83 57.1279 149.67 57.2679C149.67 57.2679 149.66 57.2779 149.65 57.2879C144.89 60.6979 139.57 63.2179 134.13 65.3079C129.7 67.0079 124.88 68.5679 120.17 69.2479C119.35 69.3679 118.55 68.8979 118.25 68.1179C114.38 57.9179 114.71 46.3279 116.12 35.4779C116.12 35.4779 116.12 35.4679 116.12 35.4579C116.18 35.1579 116.24 34.8579 116.3 34.5579C116.3 34.5179 116.28 34.4879 116.25 34.4779C116.22 34.4779 116.18 34.4979 116.17 34.5279C116.11 34.8179 116.05 35.1179 115.99 35.4079C115.99 35.4079 115.99 35.4179 115.99 35.4279C112.67 47.5079 110.51 60.7379 114.6 72.9279C114.9 73.8179 115.96 75.0379 117.63 74.7679C120.99 74.1479 123.97 73.0679 126.86 71.8179C134.95 68.3279 142.71 63.7979 149.2 57.8279C149.56 57.5379 149.9 57.2479 150.23 56.9579C150.26 56.9379 150.26 56.8879 150.23 56.8679C150.2 56.8479 150.16 56.8379 150.14 56.8679L150.15 56.8479Z" fill="#005633"/>
<path d="M151.89 40.4779C151.78 40.5779 151.67 40.6679 151.56 40.7679C151.56 40.7679 151.55 40.7679 151.54 40.7779C148.25 43.1679 144.55 44.8979 140.8 46.3979C137.72 47.5679 134.39 48.6879 131.13 49.1779C130.56 49.2679 130 48.9379 129.8 48.3979C127.08 41.3279 127.27 33.2879 128.21 25.7579C128.21 25.7579 128.21 25.7579 128.21 25.7479C128.25 25.5379 128.29 25.3279 128.33 25.1179C128.33 25.0979 128.32 25.0679 128.29 25.0679C128.27 25.0679 128.24 25.0779 128.24 25.1079C128.2 25.3079 128.16 25.5179 128.12 25.7179C128.12 25.7179 128.12 25.7179 128.12 25.7279C125.86 34.1279 124.55 43.2679 127.29 51.7579C127.51 52.3779 128.24 53.2179 129.4 53.0179C131.73 52.5779 133.78 51.7979 135.79 50.9379C141.37 48.4279 146.76 45.3079 151.25 41.1479C151.5 40.9479 151.74 40.7379 151.96 40.5379C151.98 40.5179 151.98 40.4879 151.96 40.4779C151.94 40.4579 151.91 40.4579 151.9 40.4779H151.89Z" fill="#005633"/>
</svg>
